# MagicaVoxel @ Ephtracy

# group
o 

# material
mtllib rat.mtl
usemtl palette

# normals
vn -1 0 0
vn 1 0 0
vn 0 0 1
vn 0 0 -1
vn 0 -1 0
vn 0 1 0

# texcoords
vt 0.0605469 0.5
vt 0.982422 0.5
vt 0.986328 0.5
vt 0.990234 0.5
vt 0.994141 0.5

# verts
v -0.45 -0.75 0.05
v -0.45 -0.75 -0.05
v -0.45 -0.65 0.05
v -0.45 -0.65 -0.05
v -0.35 -0.75 0.15
v -0.35 -0.75 0.05
v -0.35 -0.75 -0.05
v -0.35 -0.75 -0.15
v -0.35 -0.65 0.15
v -0.35 -0.65 0.05
v -0.35 -0.65 -0.05
v -0.35 -0.65 -0.15
v -0.35 -0.55 0.05
v -0.35 -0.55 -0.05
v -0.25 -0.85 0.05
v -0.25 -0.85 -0.05
v -0.25 -0.75 0.25
v -0.25 -0.75 0.15
v -0.25 -0.75 0.05
v -0.25 -0.75 -0.05
v -0.25 -0.75 -0.15
v -0.25 -0.75 -0.25
v -0.25 -0.65 0.25
v -0.25 -0.65 0.15
v -0.25 -0.65 0.05
v -0.25 -0.65 -0.05
v -0.25 -0.65 -0.15
v -0.25 -0.65 -0.25
v -0.25 -0.55 0.15
v -0.25 -0.55 0.05
v -0.25 -0.55 -0.05
v -0.25 -0.55 -0.15
v -0.25 -0.45 0.05
v -0.25 -0.45 -0.05
v -0.15 -0.95 0.15
v -0.15 -0.95 0.05
v -0.15 -0.95 -0.05
v -0.15 -0.95 -0.15
v -0.15 -0.85 0.15
v -0.15 -0.85 0.05
v -0.15 -0.85 -0.05
v -0.15 -0.85 -0.15
v -0.15 -0.75 0.15
v -0.15 -0.75 0.05
v -0.15 -0.75 -0.05
v -0.15 -0.75 -0.15
v -0.15 -0.65 0.25
v -0.15 -0.65 0.15
v -0.15 -0.65 -0.15
v -0.15 -0.65 -0.25
v -0.15 -0.55 0.15
v -0.15 -0.55 0.05
v -0.15 -0.55 -0.05
v -0.15 -0.55 -0.15
v -0.15 -0.45 0.25
v -0.15 -0.45 0.05
v -0.15 -0.45 -0.05
v -0.15 -0.45 -0.25
v -0.15 -0.35 0.05
v -0.15 -0.35 -0.05
v 0.05 -0.95 0.15
v 0.05 -0.95 0.05
v 0.05 -0.95 -0.05
v 0.05 -0.95 -0.15
v 0.05 -0.85 0.15
v 0.05 -0.85 0.05
v 0.05 -0.85 -0.05
v 0.05 -0.85 -0.15
v 0.05 -0.75 0.15
v 0.05 -0.75 -0.15
v 0.05 -0.55 0.45
v 0.05 -0.55 0.25
v 0.05 -0.55 -0.25
v 0.05 -0.55 -0.45
v 0.05 -0.45 0.25
v 0.05 -0.45 0.15
v 0.05 -0.45 0.05
v 0.05 -0.45 -0.05
v 0.05 -0.45 -0.15
v 0.05 -0.45 -0.25
v 0.05 -0.35 0.15
v 0.05 -0.35 0.05
v 0.05 -0.35 -0.05
v 0.05 -0.35 -0.15
v 0.05 -0.25 0.45
v 0.05 -0.25 0.15
v 0.05 -0.25 -0.15
v 0.05 -0.25 -0.45
v -0.05 -0.95 0.15
v -0.05 -0.95 0.05
v -0.05 -0.95 -0.05
v -0.05 -0.95 -0.15
v -0.05 -0.85 0.15
v -0.05 -0.85 0.05
v -0.05 -0.85 -0.05
v -0.05 -0.85 -0.15
v -0.05 -0.75 0.15
v -0.05 -0.75 -0.15
v 0.15 -0.95 0.15
v 0.15 -0.95 0.05
v 0.15 -0.95 -0.05
v 0.15 -0.95 -0.15
v 0.15 -0.85 0.15
v 0.15 -0.85 0.05
v 0.15 -0.85 -0.05
v 0.15 -0.85 -0.15
v 0.15 -0.75 0.15
v 0.15 -0.75 0.05
v 0.15 -0.75 -0.05
v 0.15 -0.75 -0.15
v 0.15 -0.55 0.45
v 0.15 -0.55 0.25
v 0.15 -0.55 0.15
v 0.15 -0.55 -0.15
v 0.15 -0.55 -0.25
v 0.15 -0.55 -0.45
v 0.15 -0.45 0.25
v 0.15 -0.45 0.15
v 0.15 -0.45 0.05
v 0.15 -0.45 -0.05
v 0.15 -0.45 -0.15
v 0.15 -0.45 -0.25
v 0.15 -0.35 0.15
v 0.15 -0.35 0.05
v 0.15 -0.35 -0.05
v 0.15 -0.35 -0.15
v 0.15 -0.25 0.45
v 0.15 -0.25 0.15
v 0.15 -0.25 -0.15
v 0.15 -0.25 -0.45
v 0.25 -0.85 0.05
v 0.25 -0.85 -0.05
v 0.25 -0.75 0.25
v 0.25 -0.75 0.15
v 0.25 -0.75 0.05
v 0.25 -0.75 -0.05
v 0.25 -0.75 -0.15
v 0.25 -0.75 -0.25
v 0.25 -0.65 0.15
v 0.25 -0.65 -0.15
v 0.25 -0.55 0.25
v 0.25 -0.55 0.15
v 0.25 -0.55 0.05
v 0.25 -0.55 -0.05
v 0.25 -0.55 -0.15
v 0.25 -0.55 -0.25
v 0.25 -0.45 0.15
v 0.25 -0.45 0.05
v 0.25 -0.45 -0.05
v 0.25 -0.45 -0.15
v 0.25 -0.35 0.05
v 0.25 -0.35 -0.05
v 0.35 -0.75 0.15
v 0.35 -0.75 0.05
v 0.35 -0.75 -0.05
v 0.35 -0.75 -0.15
v 0.35 -0.65 0.15
v 0.35 -0.65 0.05
v 0.35 -0.65 -0.05
v 0.35 -0.65 -0.15
v 0.35 -0.55 0.15
v 0.35 -0.55 0.05
v 0.35 -0.55 -0.05
v 0.35 -0.55 -0.15
v 0.35 -0.45 0.05
v 0.35 -0.45 -0.05
v 0.45 -0.75 0.05
v 0.45 -0.75 -0.05
v 0.45 -0.65 0.05
v 0.45 -0.65 -0.05
v 0.55 -0.65 0.05
v 0.55 -0.65 -0.05
v 0.55 -0.55 0.05
v 0.55 -0.55 -0.05
v 0.05 -0.55 0.45
v 0.05 -0.25 0.45
v 0.15 -0.55 0.45
v 0.15 -0.25 0.45
v -0.25 -0.75 0.25
v -0.25 -0.65 0.25
v -0.15 -0.65 0.25
v -0.15 -0.45 0.25
v -0.05 -0.75 0.25
v -0.05 -0.45 0.25
v 0.05 -0.55 0.25
v 0.05 -0.45 0.25
v 0.15 -0.55 0.25
v 0.25 -0.75 0.25
v 0.25 -0.55 0.25
v -0.35 -0.75 0.15
v -0.35 -0.65 0.15
v -0.25 -0.75 0.15
v -0.25 -0.65 0.15
v -0.25 -0.55 0.15
v -0.15 -0.95 0.15
v -0.15 -0.85 0.15
v -0.15 -0.75 0.15
v -0.15 -0.65 0.15
v -0.15 -0.55 0.15
v -0.05 -0.95 0.15
v -0.05 -0.85 0.15
v -0.05 -0.75 0.15
v 0.05 -0.95 0.15
v 0.05 -0.85 0.15
v 0.05 -0.75 0.15
v 0.15 -0.95 0.15
v 0.15 -0.85 0.15
v 0.15 -0.75 0.15
v 0.15 -0.55 0.15
v 0.15 -0.45 0.15
v 0.25 -0.75 0.15
v 0.25 -0.65 0.15
v 0.25 -0.55 0.15
v 0.25 -0.45 0.15
v 0.35 -0.75 0.15
v 0.35 -0.65 0.15
v 0.35 -0.55 0.15
v -0.45 -0.75 0.05
v -0.45 -0.65 0.05
v -0.35 -0.75 0.05
v -0.35 -0.65 0.05
v -0.35 -0.55 0.05
v -0.25 -0.85 0.05
v -0.25 -0.75 0.05
v -0.25 -0.65 0.05
v -0.25 -0.55 0.05
v -0.25 -0.45 0.05
v -0.15 -0.85 0.05
v -0.15 -0.75 0.05
v -0.15 -0.55 0.05
v -0.15 -0.45 0.05
v -0.15 -0.35 0.05
v -0.05 -0.45 0.05
v -0.05 -0.35 0.05
v 0.05 -0.45 0.05
v 0.05 -0.35 0.05
v 0.15 -0.85 0.05
v 0.15 -0.75 0.05
v 0.15 -0.45 0.05
v 0.15 -0.35 0.05
v 0.25 -0.85 0.05
v 0.25 -0.75 0.05
v 0.25 -0.55 0.05
v 0.25 -0.45 0.05
v 0.25 -0.35 0.05
v 0.35 -0.75 0.05
v 0.35 -0.65 0.05
v 0.35 -0.55 0.05
v 0.35 -0.45 0.05
v 0.45 -0.75 0.05
v 0.45 -0.65 0.05
v 0.45 -0.55 0.05
v 0.55 -0.65 0.05
v 0.55 -0.55 0.05
v -0.15 -0.95 -0.05
v -0.15 -0.85 -0.05
v -0.05 -0.95 -0.05
v -0.05 -0.85 -0.05
v 0.05 -0.95 -0.05
v 0.05 -0.85 -0.05
v 0.15 -0.95 -0.05
v 0.15 -0.85 -0.05
v 0.05 -0.35 -0.15
v 0.05 -0.25 -0.15
v 0.15 -0.35 -0.15
v 0.15 -0.25 -0.15
v 0.05 -0.35 0.15
v 0.05 -0.25 0.15
v 0.15 -0.35 0.15
v 0.15 -0.25 0.15
v -0.15 -0.95 0.05
v -0.15 -0.85 0.05
v -0.05 -0.95 0.05
v -0.05 -0.85 0.05
v 0.05 -0.95 0.05
v 0.05 -0.85 0.05
v 0.15 -0.95 0.05
v 0.15 -0.85 0.05
v -0.45 -0.75 -0.05
v -0.45 -0.65 -0.05
v -0.35 -0.75 -0.05
v -0.35 -0.65 -0.05
v -0.35 -0.55 -0.05
v -0.25 -0.85 -0.05
v -0.25 -0.75 -0.05
v -0.25 -0.65 -0.05
v -0.25 -0.55 -0.05
v -0.25 -0.45 -0.05
v -0.15 -0.85 -0.05
v -0.15 -0.75 -0.05
v -0.15 -0.55 -0.05
v -0.15 -0.45 -0.05
v -0.15 -0.35 -0.05
v -0.05 -0.45 -0.05
v -0.05 -0.35 -0.05
v 0.05 -0.45 -0.05
v 0.05 -0.35 -0.05
v 0.15 -0.85 -0.05
v 0.15 -0.75 -0.05
v 0.15 -0.45 -0.05
v 0.15 -0.35 -0.05
v 0.25 -0.85 -0.05
v 0.25 -0.75 -0.05
v 0.25 -0.55 -0.05
v 0.25 -0.45 -0.05
v 0.25 -0.35 -0.05
v 0.35 -0.75 -0.05
v 0.35 -0.65 -0.05
v 0.35 -0.55 -0.05
v 0.35 -0.45 -0.05
v 0.45 -0.75 -0.05
v 0.45 -0.65 -0.05
v 0.45 -0.55 -0.05
v 0.55 -0.65 -0.05
v 0.55 -0.55 -0.05
v -0.35 -0.75 -0.15
v -0.35 -0.65 -0.15
v -0.25 -0.75 -0.15
v -0.25 -0.65 -0.15
v -0.25 -0.55 -0.15
v -0.15 -0.95 -0.15
v -0.15 -0.85 -0.15
v -0.15 -0.75 -0.15
v -0.15 -0.65 -0.15
v -0.15 -0.55 -0.15
v -0.05 -0.95 -0.15
v -0.05 -0.85 -0.15
v -0.05 -0.75 -0.15
v 0.05 -0.95 -0.15
v 0.05 -0.85 -0.15
v 0.05 -0.75 -0.15
v 0.15 -0.95 -0.15
v 0.15 -0.85 -0.15
v 0.15 -0.75 -0.15
v 0.15 -0.55 -0.15
v 0.15 -0.45 -0.15
v 0.25 -0.75 -0.15
v 0.25 -0.65 -0.15
v 0.25 -0.55 -0.15
v 0.25 -0.45 -0.15
v 0.35 -0.75 -0.15
v 0.35 -0.65 -0.15
v 0.35 -0.55 -0.15
v -0.25 -0.75 -0.25
v -0.25 -0.65 -0.25
v -0.15 -0.65 -0.25
v -0.15 -0.45 -0.25
v -0.05 -0.75 -0.25
v -0.05 -0.45 -0.25
v 0.05 -0.55 -0.25
v 0.05 -0.45 -0.25
v 0.15 -0.55 -0.25
v 0.25 -0.75 -0.25
v 0.25 -0.55 -0.25
v 0.05 -0.55 -0.45
v 0.05 -0.25 -0.45
v 0.15 -0.55 -0.45
v 0.15 -0.25 -0.45
v -0.15 -0.95 0.15
v -0.05 -0.95 0.15
v 0.05 -0.95 0.15
v 0.15 -0.95 0.15
v -0.15 -0.95 0.05
v -0.05 -0.95 0.05
v 0.05 -0.95 0.05
v 0.15 -0.95 0.05
v -0.15 -0.95 -0.05
v -0.05 -0.95 -0.05
v 0.05 -0.95 -0.05
v 0.15 -0.95 -0.05
v -0.15 -0.95 -0.15
v -0.05 -0.95 -0.15
v 0.05 -0.95 -0.15
v 0.15 -0.95 -0.15
v -0.25 -0.85 0.05
v -0.15 -0.85 0.05
v -0.05 -0.85 0.05
v 0.05 -0.85 0.05
v 0.15 -0.85 0.05
v 0.25 -0.85 0.05
v -0.25 -0.85 -0.05
v -0.15 -0.85 -0.05
v -0.05 -0.85 -0.05
v 0.05 -0.85 -0.05
v 0.15 -0.85 -0.05
v 0.25 -0.85 -0.05
v -0.25 -0.75 0.25
v -0.05 -0.75 0.25
v 0.25 -0.75 0.25
v -0.35 -0.75 0.15
v -0.25 -0.75 0.15
v -0.15 -0.75 0.15
v -0.05 -0.75 0.15
v 0.05 -0.75 0.15
v 0.15 -0.75 0.15
v 0.25 -0.75 0.15
v 0.35 -0.75 0.15
v -0.45 -0.75 0.05
v -0.35 -0.75 0.05
v -0.25 -0.75 0.05
v -0.15 -0.75 0.05
v 0.15 -0.75 0.05
v 0.25 -0.75 0.05
v 0.35 -0.75 0.05
v 0.45 -0.75 0.05
v -0.45 -0.75 -0.05
v -0.35 -0.75 -0.05
v -0.25 -0.75 -0.05
v -0.15 -0.75 -0.05
v 0.15 -0.75 -0.05
v 0.25 -0.75 -0.05
v 0.35 -0.75 -0.05
v 0.45 -0.75 -0.05
v -0.35 -0.75 -0.15
v -0.25 -0.75 -0.15
v -0.15 -0.75 -0.15
v -0.05 -0.75 -0.15
v 0.05 -0.75 -0.15
v 0.15 -0.75 -0.15
v 0.25 -0.75 -0.15
v 0.35 -0.75 -0.15
v -0.25 -0.75 -0.25
v -0.05 -0.75 -0.25
v 0.25 -0.75 -0.25
v 0.45 -0.65 0.05
v 0.55 -0.65 0.05
v 0.45 -0.65 -0.05
v 0.55 -0.65 -0.05
v 0.05 -0.55 0.45
v 0.15 -0.55 0.45
v 0.05 -0.55 0.25
v 0.15 -0.55 0.25
v 0.05 -0.55 -0.25
v 0.15 -0.55 -0.25
v 0.05 -0.55 -0.45
v 0.15 -0.55 -0.45
v -0.25 -0.65 0.25
v -0.15 -0.65 0.25
v -0.35 -0.65 0.15
v -0.25 -0.65 0.15
v -0.15 -0.65 0.15
v -0.45 -0.65 0.05
v -0.35 -0.65 0.05
v -0.25 -0.65 0.05
v -0.45 -0.65 -0.05
v -0.35 -0.65 -0.05
v -0.25 -0.65 -0.05
v -0.35 -0.65 -0.15
v -0.25 -0.65 -0.15
v -0.15 -0.65 -0.15
v -0.25 -0.65 -0.25
v -0.15 -0.65 -0.25
v 0.15 -0.55 0.25
v 0.25 -0.55 0.25
v -0.25 -0.55 0.15
v -0.15 -0.55 0.15
v 0.15 -0.55 0.15
v 0.25 -0.55 0.15
v 0.35 -0.55 0.15
v -0.35 -0.55 0.05
v -0.25 -0.55 0.05
v -0.15 -0.55 0.05
v 0.25 -0.55 0.05
v 0.35 -0.55 0.05
v 0.45 -0.55 0.05
v 0.55 -0.55 0.05
v -0.35 -0.55 -0.05
v -0.25 -0.55 -0.05
v -0.15 -0.55 -0.05
v 0.25 -0.55 -0.05
v 0.35 -0.55 -0.05
v 0.45 -0.55 -0.05
v 0.55 -0.55 -0.05
v -0.25 -0.55 -0.15
v -0.15 -0.55 -0.15
v 0.15 -0.55 -0.15
v 0.25 -0.55 -0.15
v 0.35 -0.55 -0.15
v 0.15 -0.55 -0.25
v 0.25 -0.55 -0.25
v -0.15 -0.45 0.25
v -0.05 -0.45 0.25
v 0.05 -0.45 0.25
v 0.05 -0.45 0.15
v 0.15 -0.45 0.15
v 0.25 -0.45 0.15
v -0.25 -0.45 0.05
v -0.15 -0.45 0.05
v -0.05 -0.45 0.05
v 0.05 -0.45 0.05
v 0.15 -0.45 0.05
v 0.25 -0.45 0.05
v 0.35 -0.45 0.05
v -0.25 -0.45 -0.05
v -0.15 -0.45 -0.05
v -0.05 -0.45 -0.05
v 0.05 -0.45 -0.05
v 0.15 -0.45 -0.05
v 0.25 -0.45 -0.05
v 0.35 -0.45 -0.05
v 0.05 -0.45 -0.15
v 0.15 -0.45 -0.15
v 0.25 -0.45 -0.15
v -0.15 -0.45 -0.25
v -0.05 -0.45 -0.25
v 0.05 -0.45 -0.25
v 0.05 -0.35 0.15
v 0.15 -0.35 0.15
v -0.15 -0.35 0.05
v -0.05 -0.35 0.05
v 0.05 -0.35 0.05
v 0.15 -0.35 0.05
v 0.25 -0.35 0.05
v -0.15 -0.35 -0.05
v -0.05 -0.35 -0.05
v 0.05 -0.35 -0.05
v 0.15 -0.35 -0.05
v 0.25 -0.35 -0.05
v 0.05 -0.35 -0.15
v 0.15 -0.35 -0.15
v 0.05 -0.25 0.45
v 0.15 -0.25 0.45
v 0.05 -0.25 0.15
v 0.15 -0.25 0.15
v 0.05 -0.25 -0.15
v 0.15 -0.25 -0.15
v 0.05 -0.25 -0.45
v 0.15 -0.25 -0.45

# faces
f 3/1/1 2/1/1 1/1/1
f 4/1/1 2/1/1 3/1/1
f 9/4/1 6/4/1 5/4/1
f 10/4/1 6/4/1 9/4/1
f 11/4/1 8/4/1 7/4/1
f 12/4/1 8/4/1 11/4/1
f 13/4/1 11/4/1 10/4/1
f 14/4/1 11/4/1 13/4/1
f 19/3/1 16/3/1 15/3/1
f 20/3/1 16/3/1 19/3/1
f 23/4/1 18/4/1 17/4/1
f 24/4/1 18/4/1 23/4/1
f 27/4/1 22/4/1 21/4/1
f 28/4/1 22/4/1 27/4/1
f 29/4/1 25/4/1 24/4/1
f 30/4/1 25/4/1 29/4/1
f 31/4/1 27/4/1 26/4/1
f 32/4/1 27/4/1 31/4/1
f 33/4/1 31/4/1 30/4/1
f 34/4/1 31/4/1 33/4/1
f 39/1/1 36/1/1 35/1/1
f 40/1/1 36/1/1 39/1/1
f 41/1/1 38/1/1 37/1/1
f 42/1/1 38/1/1 41/1/1
f 43/3/1 40/3/1 39/3/1
f 44/3/1 40/3/1 43/3/1
f 45/3/1 42/3/1 41/3/1
f 46/3/1 42/3/1 45/3/1
f 51/4/1 48/4/1 47/4/1
f 54/4/1 50/4/1 49/4/1
f 55/4/1 52/4/1 51/4/1
f 55/4/1 51/4/1 47/4/1
f 56/4/1 52/4/1 55/4/1
f 57/4/1 54/4/1 53/4/1
f 58/4/1 50/4/1 54/4/1
f 58/4/1 54/4/1 57/4/1
f 59/4/1 57/4/1 56/4/1
f 60/4/1 57/4/1 59/4/1
f 65/1/1 62/1/1 61/1/1
f 66/1/1 62/1/1 65/1/1
f 67/1/1 64/1/1 63/1/1
f 68/1/1 64/1/1 67/1/1
f 69/3/1 66/3/1 65/3/1
f 69/3/1 67/3/1 66/3/1
f 69/3/1 68/3/1 67/3/1
f 70/3/1 68/3/1 69/3/1
f 75/1/1 72/1/1 71/1/1
f 80/1/1 74/1/1 73/1/1
f 81/1/1 76/1/1 75/1/1
f 81/3/1 77/3/1 76/3/1
f 82/3/1 77/3/1 81/3/1
f 83/3/1 79/3/1 78/3/1
f 84/1/1 80/1/1 79/1/1
f 84/3/1 79/3/1 83/3/1
f 85/1/1 75/1/1 71/1/1
f 85/1/1 81/1/1 75/1/1
f 86/1/1 81/1/1 85/1/1
f 87/1/1 80/1/1 84/1/1
f 88/1/1 74/1/1 80/1/1
f 88/1/1 80/1/1 87/1/1
f 89/1/2 90/1/2 93/1/2
f 93/1/2 90/1/2 94/1/2
f 91/1/2 92/1/2 95/1/2
f 95/1/2 92/1/2 96/1/2
f 93/3/2 94/3/2 97/3/2
f 94/3/2 95/3/2 97/3/2
f 95/3/2 96/3/2 97/3/2
f 97/3/2 96/3/2 98/3/2
f 99/1/2 100/1/2 103/1/2
f 103/1/2 100/1/2 104/1/2
f 101/1/2 102/1/2 105/1/2
f 105/1/2 102/1/2 106/1/2
f 103/3/2 104/3/2 107/3/2
f 107/3/2 104/3/2 108/3/2
f 105/3/2 106/3/2 109/3/2
f 109/3/2 106/3/2 110/3/2
f 112/3/2 113/3/2 117/3/2
f 111/1/2 112/1/2 117/1/2
f 117/3/2 113/3/2 118/3/2
f 114/3/2 115/3/2 121/3/2
f 115/1/2 116/1/2 122/1/2
f 121/3/2 115/3/2 122/3/2
f 118/3/2 119/3/2 123/3/2
f 117/1/2 118/1/2 123/1/2
f 123/3/2 119/3/2 124/3/2
f 120/3/2 121/3/2 125/3/2
f 121/1/2 122/1/2 126/1/2
f 125/3/2 121/3/2 126/3/2
f 111/1/2 117/1/2 127/1/2
f 117/1/2 123/1/2 127/1/2
f 127/1/2 123/1/2 128/1/2
f 126/1/2 122/1/2 129/1/2
f 122/1/2 116/1/2 130/1/2
f 129/1/2 122/1/2 130/1/2
f 131/3/2 132/3/2 135/3/2
f 135/3/2 132/3/2 136/3/2
f 133/3/2 134/3/2 139/3/2
f 137/3/2 138/3/2 140/3/2
f 133/3/2 139/3/2 141/3/2
f 141/3/2 139/3/2 142/3/2
f 140/3/2 138/3/2 145/3/2
f 145/3/2 138/3/2 146/3/2
f 142/3/2 143/3/2 147/3/2
f 147/3/2 143/3/2 148/3/2
f 144/3/2 145/3/2 149/3/2
f 149/3/2 145/3/2 150/3/2
f 148/3/2 149/3/2 151/3/2
f 151/3/2 149/3/2 152/3/2
f 153/2/2 154/2/2 157/2/2
f 157/2/2 154/2/2 158/2/2
f 155/2/2 156/2/2 159/2/2
f 159/2/2 156/2/2 160/2/2
f 157/5/2 158/5/2 161/5/2
f 161/5/2 158/5/2 162/5/2
f 159/5/2 160/5/2 163/5/2
f 163/5/2 160/5/2 164/5/2
f 162/3/2 163/3/2 165/3/2
f 165/3/2 163/3/2 166/3/2
f 167/2/2 168/2/2 169/2/2
f 169/2/2 168/2/2 170/2/2
f 171/1/2 172/1/2 173/1/2
f 173/1/2 172/1/2 174/1/2
f 177/1/3 176/1/3 175/1/3
f 178/1/3 176/1/3 177/1/3
f 181/4/3 180/4/3 179/4/3
f 183/4/3 181/4/3 179/4/3
f 183/4/3 182/4/3 181/4/3
f 184/4/3 182/4/3 183/4/3
f 185/3/3 184/3/3 183/3/3
f 186/3/3 184/3/3 185/3/3
f 187/3/3 185/3/3 183/3/3
f 188/3/3 187/3/3 183/3/3
f 189/3/3 187/3/3 188/3/3
f 192/4/3 191/4/3 190/4/3
f 193/4/3 191/4/3 192/4/3
f 198/4/3 194/4/3 193/4/3
f 199/4/3 194/4/3 198/4/3
f 200/1/3 196/1/3 195/1/3
f 201/3/3 197/3/3 196/3/3
f 201/1/3 196/1/3 200/1/3
f 202/3/3 197/3/3 201/3/3
f 206/1/3 204/1/3 203/1/3
f 207/3/3 205/3/3 204/3/3
f 207/1/3 204/1/3 206/1/3
f 208/3/3 205/3/3 207/3/3
f 213/3/3 210/3/3 209/3/3
f 214/3/3 210/3/3 213/3/3
f 215/2/3 212/2/3 211/2/3
f 216/5/3 213/5/3 212/5/3
f 216/2/3 212/2/3 215/2/3
f 217/5/3 213/5/3 216/5/3
f 220/1/3 219/1/3 218/1/3
f 221/1/3 219/1/3 220/1/3
f 225/4/3 222/4/3 221/4/3
f 226/4/3 222/4/3 225/4/3
f 228/3/3 224/3/3 223/3/3
f 229/3/3 224/3/3 228/3/3
f 230/4/3 227/4/3 226/4/3
f 231/4/3 227/4/3 230/4/3
f 233/4/3 232/4/3 231/4/3
f 234/4/3 232/4/3 233/4/3
f 235/3/3 234/3/3 233/3/3
f 236/3/3 234/3/3 235/3/3
f 241/3/3 238/3/3 237/3/3
f 242/3/3 238/3/3 241/3/3
f 244/3/3 240/3/3 239/3/3
f 245/3/3 240/3/3 244/3/3
f 248/3/3 244/3/3 243/3/3
f 249/3/3 244/3/3 248/3/3
f 250/2/3 247/2/3 246/2/3
f 251/3/3 248/3/3 247/3/3
f 251/2/3 247/2/3 250/2/3
f 252/3/3 248/3/3 251/3/3
f 253/1/3 252/1/3 251/1/3
f 254/1/3 252/1/3 253/1/3
f 257/1/3 256/1/3 255/1/3
f 258/1/3 256/1/3 257/1/3
f 261/1/3 260/1/3 259/1/3
f 262/1/3 260/1/3 261/1/3
f 265/1/3 264/1/3 263/1/3
f 266/1/3 264/1/3 265/1/3
f 267/1/4 268/1/4 269/1/4
f 269/1/4 268/1/4 270/1/4
f 271/1/4 272/1/4 273/1/4
f 273/1/4 272/1/4 274/1/4
f 275/1/4 276/1/4 277/1/4
f 277/1/4 276/1/4 278/1/4
f 279/1/4 280/1/4 281/1/4
f 281/1/4 280/1/4 282/1/4
f 282/4/4 283/4/4 286/4/4
f 286/4/4 283/4/4 287/4/4
f 284/3/4 285/3/4 289/3/4
f 289/3/4 285/3/4 290/3/4
f 287/4/4 288/4/4 291/4/4
f 291/4/4 288/4/4 292/4/4
f 292/4/4 293/4/4 294/4/4
f 294/4/4 293/4/4 295/4/4
f 294/3/4 295/3/4 296/3/4
f 296/3/4 295/3/4 297/3/4
f 298/3/4 299/3/4 302/3/4
f 302/3/4 299/3/4 303/3/4
f 300/3/4 301/3/4 305/3/4
f 305/3/4 301/3/4 306/3/4
f 304/3/4 305/3/4 309/3/4
f 309/3/4 305/3/4 310/3/4
f 307/2/4 308/2/4 311/2/4
f 308/3/4 309/3/4 312/3/4
f 311/2/4 308/2/4 312/2/4
f 312/3/4 309/3/4 313/3/4
f 312/1/4 313/1/4 314/1/4
f 314/1/4 313/1/4 315/1/4
f 316/4/4 317/4/4 318/4/4
f 318/4/4 317/4/4 319/4/4
f 319/4/4 320/4/4 324/4/4
f 324/4/4 320/4/4 325/4/4
f 321/1/4 322/1/4 326/1/4
f 322/3/4 323/3/4 327/3/4
f 326/1/4 322/1/4 327/1/4
f 327/3/4 323/3/4 328/3/4
f 329/1/4 330/1/4 332/1/4
f 330/3/4 331/3/4 333/3/4
f 332/1/4 330/1/4 333/1/4
f 333/3/4 331/3/4 334/3/4
f 335/3/4 336/3/4 339/3/4
f 339/3/4 336/3/4 340/3/4
f 337/2/4 338/2/4 341/2/4
f 338/5/4 339/5/4 342/5/4
f 341/2/4 338/2/4 342/2/4
f 342/5/4 339/5/4 343/5/4
f 344/4/4 345/4/4 346/4/4
f 344/4/4 346/4/4 348/4/4
f 346/4/4 347/4/4 348/4/4
f 348/4/4 347/4/4 349/4/4
f 348/3/4 349/3/4 350/3/4
f 350/3/4 349/3/4 351/3/4
f 348/3/4 350/3/4 352/3/4
f 348/3/4 352/3/4 353/3/4
f 353/3/4 352/3/4 354/3/4
f 355/1/4 356/1/4 357/1/4
f 357/1/4 356/1/4 358/1/4
f 363/1/5 360/1/5 359/1/5
f 364/1/5 360/1/5 363/1/5
f 365/1/5 362/1/5 361/1/5
f 366/1/5 362/1/5 365/1/5
f 371/1/5 368/1/5 367/1/5
f 372/1/5 368/1/5 371/1/5
f 373/1/5 370/1/5 369/1/5
f 374/1/5 370/1/5 373/1/5
f 381/3/5 376/3/5 375/3/5
f 381/3/5 377/3/5 376/3/5
f 382/3/5 377/3/5 381/3/5
f 383/3/5 377/3/5 382/3/5
f 384/3/5 380/3/5 379/3/5
f 384/3/5 379/3/5 378/3/5
f 385/3/5 380/3/5 384/3/5
f 386/3/5 380/3/5 385/3/5
f 391/4/5 388/4/5 387/4/5
f 392/4/5 388/4/5 391/4/5
f 393/3/5 389/3/5 388/3/5
f 393/4/5 388/4/5 392/4/5
f 394/3/5 389/3/5 393/3/5
f 395/3/5 389/3/5 394/3/5
f 396/3/5 389/3/5 395/3/5
f 399/4/5 391/4/5 390/4/5
f 400/3/5 392/3/5 391/3/5
f 400/4/5 391/4/5 399/4/5
f 401/3/5 392/3/5 400/3/5
f 402/3/5 396/3/5 395/3/5
f 403/2/5 397/2/5 396/2/5
f 403/3/5 396/3/5 402/3/5
f 404/2/5 397/2/5 403/2/5
f 406/1/5 399/1/5 398/1/5
f 406/1/5 400/1/5 399/1/5
f 407/1/5 400/1/5 406/1/5
f 408/1/5 400/1/5 407/1/5
f 411/3/5 404/3/5 403/3/5
f 412/2/5 405/2/5 404/2/5
f 412/3/5 404/3/5 411/3/5
f 413/2/5 405/2/5 412/2/5
f 414/4/5 408/4/5 407/4/5
f 415/3/5 409/3/5 408/3/5
f 415/4/5 408/4/5 414/4/5
f 416/3/5 409/3/5 415/3/5
f 417/3/5 394/3/5 393/3/5
f 418/3/5 394/3/5 417/3/5
f 419/3/5 411/3/5 410/3/5
f 420/2/5 412/2/5 411/2/5
f 420/3/5 411/3/5 419/3/5
f 421/2/5 412/2/5 420/2/5
f 422/4/5 416/4/5 415/4/5
f 422/4/5 417/4/5 416/4/5
f 423/3/5 418/3/5 417/3/5
f 423/4/5 417/4/5 422/4/5
f 423/3/5 419/3/5 418/3/5
f 423/3/5 420/3/5 419/3/5
f 424/3/5 420/3/5 423/3/5
f 427/1/5 426/1/5 425/1/5
f 428/1/5 426/1/5 427/1/5
f 431/1/5 430/1/5 429/1/5
f 432/1/5 430/1/5 431/1/5
f 435/1/5 434/1/5 433/1/5
f 436/1/5 434/1/5 435/1/5
f 437/4/6 438/4/6 440/4/6
f 440/4/6 438/4/6 441/4/6
f 439/4/6 440/4/6 443/4/6
f 443/4/6 440/4/6 444/4/6
f 442/1/6 443/1/6 445/1/6
f 445/1/6 443/1/6 446/1/6
f 446/4/6 447/4/6 448/4/6
f 448/4/6 447/4/6 449/4/6
f 449/4/6 450/4/6 451/4/6
f 451/4/6 450/4/6 452/4/6
f 453/3/6 454/3/6 457/3/6
f 457/3/6 454/3/6 458/3/6
f 455/4/6 456/4/6 461/4/6
f 461/4/6 456/4/6 462/4/6
f 458/5/6 459/5/6 463/5/6
f 463/5/6 459/5/6 464/5/6
f 460/4/6 461/4/6 467/4/6
f 467/4/6 461/4/6 468/4/6
f 464/3/6 465/3/6 471/3/6
f 465/1/6 466/1/6 472/1/6
f 471/3/6 465/3/6 472/3/6
f 472/1/6 466/1/6 473/1/6
f 468/4/6 469/4/6 474/4/6
f 474/4/6 469/4/6 475/4/6
f 470/5/6 471/5/6 477/5/6
f 477/5/6 471/5/6 478/5/6
f 476/3/6 477/3/6 479/3/6
f 479/3/6 477/3/6 480/3/6
f 482/3/6 483/3/6 484/3/6
f 481/4/6 482/4/6 488/4/6
f 482/3/6 484/3/6 489/3/6
f 488/4/6 482/4/6 489/4/6
f 489/3/6 484/3/6 490/3/6
f 485/3/6 486/3/6 491/3/6
f 491/3/6 486/3/6 492/3/6
f 487/4/6 488/4/6 494/4/6
f 494/4/6 488/4/6 495/4/6
f 492/3/6 493/3/6 499/3/6
f 499/3/6 493/3/6 500/3/6
f 496/3/6 497/3/6 501/3/6
f 498/3/6 499/3/6 502/3/6
f 502/3/6 499/3/6 503/3/6
f 495/4/6 496/4/6 504/4/6
f 496/3/6 501/3/6 505/3/6
f 504/4/6 496/4/6 505/4/6
f 505/3/6 501/3/6 506/3/6
f 507/3/6 508/3/6 511/3/6
f 511/3/6 508/3/6 512/3/6
f 509/4/6 510/4/6 514/4/6
f 512/3/6 513/3/6 515/3/6
f 514/4/6 510/4/6 515/4/6
f 510/3/6 511/3/6 515/3/6
f 511/3/6 512/3/6 515/3/6
f 515/3/6 513/3/6 516/3/6
f 516/3/6 513/3/6 517/3/6
f 517/3/6 513/3/6 518/3/6
f 516/3/6 517/3/6 519/3/6
f 519/3/6 517/3/6 520/3/6
f 521/1/6 522/1/6 523/1/6
f 523/1/6 522/1/6 524/1/6
f 525/1/6 526/1/6 527/1/6
f 527/1/6 526/1/6 528/1/6
